<svg xmlns="http://www.w3.org/2000/svg" viewBox="0 0 880 560" font-family="system-ui,sans-serif"><rect x="0" y="0" width="880" height="560" rx="14" fill="#ffffff" stroke="#e5e7eb" stroke-width="2"/><rect x="0" y="0" width="880" height="46" rx="14" fill="#f3ece0"/><rect x="0" y="30" width="880" height="16" rx="0" fill="#f3ece0"/><circle cx="26" cy="23" r="6" fill="#ef4444"/><circle cx="48" cy="23" r="6" fill="#f59e0b"/><circle cx="70" cy="23" r="6" fill="#22c55e"/><rect x="108" y="13" width="730" height="22" rx="11" fill="#ffffff" stroke="#e5e7eb" stroke-width="1"/><text x="122" y="28" font-family="system-ui,Segoe UI,Roboto,sans-serif" font-size="12.5" font-weight="400" fill="#6b7280" text-anchor="start">🔒 resumes-gpt.com</text><line x1="0" y1="46" x2="880" y2="46" stroke="#e5e7eb" stroke-width="1"/><rect x="0" y="46" width="880" height="44" rx="0" fill="#ffffff"/><line x1="0" y1="90" x2="880" y2="90" stroke="#e5e7eb" stroke-width="1"/><text x="24" y="74" font-family="system-ui,Segoe UI,Roboto,sans-serif" font-size="16" font-weight="800" fill="#1f2937" text-anchor="start">resumes</text><text x="95" y="74" font-family="system-ui,Segoe UI,Roboto,sans-serif" font-size="16" font-weight="800" fill="#d97706" text-anchor="start">-gpt</text><rect x="670" y="58" width="80" height="22" rx="11" fill="#faf6ee"/><text x="710" y="73" font-family="system-ui,Segoe UI,Roboto,sans-serif" font-size="11" font-weight="600" fill="#6b7280" text-anchor="middle">Templates</text><rect x="760" y="58" width="96" height="22" rx="11" fill="#d97706"/><text x="808" y="73" font-family="system-ui,Segoe UI,Roboto,sans-serif" font-size="11" font-weight="700" fill="#ffffff" text-anchor="middle">Get started</text><text x="24" y="128" font-family="system-ui,Segoe UI,Roboto,sans-serif" font-size="20" font-weight="800" fill="#1f2937" text-anchor="start">Elite AI Tools</text><text x="24" y="150" font-family="system-ui,Segoe UI,Roboto,sans-serif" font-size="12.5" font-weight="400" fill="#6b7280" text-anchor="start">Your advanced job-search toolkit</text><rect x="24" y="170" width="264" height="150" rx="12" fill="#ffffff" stroke="#e5e7eb" stroke-width="1.5"/><rect x="42" y="190" width="40" height="40" rx="10" fill="#faf6ee"/><text x="62" y="217" font-family="system-ui,Segoe UI,Roboto,sans-serif" font-size="20" font-weight="400" fill="#1f2937" text-anchor="middle">📚</text><text x="94" y="208" font-family="system-ui,Segoe UI,Roboto,sans-serif" font-size="13.5" font-weight="800" fill="#1f2937" text-anchor="start">Learning Materials</text><text x="94" y="228" font-family="system-ui,Segoe UI,Roboto,sans-serif" font-size="10.5" font-weight="400" fill="#6b7280" text-anchor="start">Skill-based Q&amp;A from your resu</text><rect x="42" y="262" width="100" height="28" rx="8" fill="#d97706"/><text x="92" y="280" font-family="system-ui,Segoe UI,Roboto,sans-serif" font-size="11" font-weight="700" fill="#ffffff" text-anchor="middle">Open</text><rect x="308" y="170" width="264" height="150" rx="12" fill="#ffffff" stroke="#e5e7eb" stroke-width="1.5"/><rect x="326" y="190" width="40" height="40" rx="10" fill="#faf6ee"/><text x="346" y="217" font-family="system-ui,Segoe UI,Roboto,sans-serif" font-size="20" font-weight="400" fill="#1f2937" text-anchor="middle">🎤</text><text x="378" y="208" font-family="system-ui,Segoe UI,Roboto,sans-serif" font-size="13.5" font-weight="800" fill="#1f2937" text-anchor="start">Mock Interview</text><text x="378" y="228" font-family="system-ui,Segoe UI,Roboto,sans-serif" font-size="10.5" font-weight="400" fill="#6b7280" text-anchor="start">Practice and get rated</text><rect x="326" y="262" width="100" height="28" rx="8" fill="#d97706"/><text x="376" y="280" font-family="system-ui,Segoe UI,Roboto,sans-serif" font-size="11" font-weight="700" fill="#ffffff" text-anchor="middle">Open</text><rect x="592" y="170" width="264" height="150" rx="12" fill="#ffffff" stroke="#e5e7eb" stroke-width="1.5"/><rect x="610" y="190" width="40" height="40" rx="10" fill="#faf6ee"/><text x="630" y="217" font-family="system-ui,Segoe UI,Roboto,sans-serif" font-size="20" font-weight="400" fill="#1f2937" text-anchor="middle">🚀</text><text x="662" y="208" font-family="system-ui,Segoe UI,Roboto,sans-serif" font-size="13.5" font-weight="800" fill="#1f2937" text-anchor="start">Job Application Agent</text><text x="662" y="228" font-family="system-ui,Segoe UI,Roboto,sans-serif" font-size="10.5" font-weight="400" fill="#6b7280" text-anchor="start">Auto-apply on LinkedIn</text><rect x="610" y="262" width="100" height="28" rx="8" fill="#d97706"/><text x="660" y="280" font-family="system-ui,Segoe UI,Roboto,sans-serif" font-size="11" font-weight="700" fill="#ffffff" text-anchor="middle">Open</text><rect x="24" y="350" width="264" height="150" rx="12" fill="#ffffff" stroke="#e5e7eb" stroke-width="1.5"/><rect x="42" y="370" width="40" height="40" rx="10" fill="#faf6ee"/><text x="62" y="397" font-family="system-ui,Segoe UI,Roboto,sans-serif" font-size="20" font-weight="400" fill="#1f2937" text-anchor="middle">🤖</text><text x="94" y="388" font-family="system-ui,Segoe UI,Roboto,sans-serif" font-size="13.5" font-weight="800" fill="#1f2937" text-anchor="start">Career Counseling</text><text x="94" y="408" font-family="system-ui,Segoe UI,Roboto,sans-serif" font-size="10.5" font-weight="400" fill="#6b7280" text-anchor="start">AI roadmap &amp; advice</text><rect x="42" y="442" width="100" height="28" rx="8" fill="#d97706"/><text x="92" y="460" font-family="system-ui,Segoe UI,Roboto,sans-serif" font-size="11" font-weight="700" fill="#ffffff" text-anchor="middle">Open</text><rect x="308" y="350" width="264" height="150" rx="12" fill="#ffffff" stroke="#e5e7eb" stroke-width="1.5"/><rect x="326" y="370" width="40" height="40" rx="10" fill="#faf6ee"/><text x="346" y="397" font-family="system-ui,Segoe UI,Roboto,sans-serif" font-size="20" font-weight="400" fill="#1f2937" text-anchor="middle">📊</text><text x="378" y="388" font-family="system-ui,Segoe UI,Roboto,sans-serif" font-size="13.5" font-weight="800" fill="#1f2937" text-anchor="start">Interview Gap Analysis</text><text x="378" y="408" font-family="system-ui,Segoe UI,Roboto,sans-serif" font-size="10.5" font-weight="400" fill="#6b7280" text-anchor="start">See what to improve</text><rect x="326" y="442" width="100" height="28" rx="8" fill="#d97706"/><text x="376" y="460" font-family="system-ui,Segoe UI,Roboto,sans-serif" font-size="11" font-weight="700" fill="#ffffff" text-anchor="middle">Open</text><rect x="592" y="350" width="264" height="150" rx="12" fill="#ffffff" stroke="#e5e7eb" stroke-width="1.5"/><rect x="610" y="370" width="40" height="40" rx="10" fill="#faf6ee"/><text x="630" y="397" font-family="system-ui,Segoe UI,Roboto,sans-serif" font-size="20" font-weight="400" fill="#1f2937" text-anchor="middle">✍️</text><text x="662" y="388" font-family="system-ui,Segoe UI,Roboto,sans-serif" font-size="13.5" font-weight="800" fill="#1f2937" text-anchor="start">Cover Letter</text><text x="662" y="408" font-family="system-ui,Segoe UI,Roboto,sans-serif" font-size="10.5" font-weight="400" fill="#6b7280" text-anchor="start">Tailored to each role</text><rect x="610" y="442" width="100" height="28" rx="8" fill="#d97706"/><text x="660" y="460" font-family="system-ui,Segoe UI,Roboto,sans-serif" font-size="11" font-weight="700" fill="#ffffff" text-anchor="middle">Open</text><circle cx="62" cy="180" r="15" fill="#d97706"/><text x="62" y="185" font-family="system-ui,Segoe UI,Roboto,sans-serif" font-size="14" font-weight="800" fill="#ffffff" text-anchor="middle">1</text><circle cx="742" cy="276" r="15" fill="#d97706"/><text x="742" y="281" font-family="system-ui,Segoe UI,Roboto,sans-serif" font-size="14" font-weight="800" fill="#ffffff" text-anchor="middle">2</text></svg>